<?xml version="1.0" encoding="UTF-8"?>
<svg version="1.1" xmlns="http://www.w3.org/2000/svg" width="600" height="360">
<path d="M0 0 C198 0 396 0 600 0 C600 118.8 600 237.6 600 360 C402 360 204 360 0 360 C0 241.2 0 122.4 0 0 Z " fill="#002652" transform="translate(0,0)"/>
<path d="M0 0 C21.7701704 -0.60163214 21.7701704 -0.60163214 31.09960938 -0.73242188 C37.45008924 -0.82187359 43.79730501 -0.92728996 50.14526367 -1.1315918 C55.26792023 -1.2954139 60.38707687 -1.38442193 65.51215172 -1.42315865 C67.4601726 -1.4507331 69.40801574 -1.50459213 71.35453224 -1.58595085 C86.18905976 -2.18094059 86.18905976 -2.18094059 90.88567162 1.46304703 C94.23092441 4.99718778 96.69830846 8.94678712 99.00570202 13.21183968 C100.35162239 15.63236295 101.96532696 17.81143901 103.63671875 20.015625 C104.65419464 21.42668776 105.67113605 22.83813611 106.6875 24.25 C107.79151473 25.78135955 108.89568078 27.31261002 110 28.84375 C110.51691406 29.56046875 111.03382813 30.2771875 111.56640625 31.015625 C113.43280441 33.59908621 115.30932925 36.17508849 117.1875 38.75 C119.61337531 42.07864387 122.01593024 45.42256311 124.40209961 48.77978516 C131.150731 58.27286896 138.07095005 67.63812367 145 77 C149.36643807 72.92411974 152.74377021 68.42980267 156.1875 63.5625 C156.75919922 62.76263672 157.33089844 61.96277344 157.91992188 61.13867188 C159.61748819 58.76207903 161.30912809 56.38135823 163 54 C164.27191679 52.21695183 165.54530003 50.43495963 166.81884766 48.65307617 C167.61204643 47.54295858 168.40468184 46.43243827 169.19677734 45.3215332 C174.19314588 38.31642873 179.24067247 31.34823313 184.28271484 24.37597656 C186.06093334 21.91569473 187.83734537 19.45411745 189.61328125 16.9921875 C190.20133545 16.17717773 190.78938965 15.36216797 191.39526367 14.52246094 C192.52198403 12.9607963 193.64846119 11.39895615 194.7746582 9.83691406 C195.28472412 9.13018555 195.79479004 8.42345703 196.3203125 7.6953125 C196.76648926 7.07672363 197.21266602 6.45813477 197.67236328 5.82080078 C198.1104834 5.21993652 198.54860352 4.61907227 199 4 C199.34685349 3.31181183 199.69370697 2.62362366 200.05107117 1.9145813 C202.5839806 -0.57368865 204.56901408 -0.47247025 208.02131653 -0.49768066 C208.84274643 -0.48329956 209.66417633 -0.46891846 210.51049805 -0.45410156 C211.81325684 -0.45497772 211.81325684 -0.45497772 213.14233398 -0.45587158 C216.01586744 -0.45308265 218.8883663 -0.42195272 221.76171875 -0.390625 C223.75282728 -0.38316548 225.74394315 -0.37747119 227.73506165 -0.37347412 C232.97791787 -0.35819504 238.22033146 -0.31889351 243.4630127 -0.2746582 C249.75214744 -0.22656412 256.04143013 -0.20818233 262.33069611 -0.18484497 C271.88743867 -0.14604401 281.44320986 -0.06940578 291 0 C291 20.46 291 40.92 291 62 C283.74 62 276.48 62 269 62 C269 90.05 269 118.1 269 147 C276.26 147 283.52 147 291 147 C291 167.46 291 187.92 291 209 C253.71 209 216.42 209 178 209 C178 188.54 178 168.08 178 147 C185.92 147 193.84 147 202 147 C201.67 131.49 201.34 115.98 201 100 C192.98195704 110.64212975 185.0060292 121.28766083 177.30712891 132.16162109 C167.06018083 146.57318609 156.65609423 160.8878752 146 175 C141.7309222 171.00508316 138.4257727 166.64480741 135.0625 161.875 C133.90843183 160.25718457 132.75345368 158.64001796 131.59765625 157.0234375 C131.00484863 156.19295898 130.41204102 155.36248047 129.80126953 154.50683594 C126.90535114 150.47657164 123.95257542 146.4888416 121 142.5 C116.38404496 136.25247179 111.79679082 129.98556671 107.25 123.6875 C106.76789063 123.01976562 106.28578125 122.35203125 105.7890625 121.6640625 C100.83692948 114.79198486 95.92344952 107.89282933 91 101 C90.67 115.85 90.34 130.7 90 146 C97.59 146 105.18 146 113 146 C113 166.79 113 187.58 113 209 C75.71 209 38.42 209 0 209 C0 188.54 0 168.08 0 147 C7.26 147 14.52 147 22 147 C22 118.95 22 90.9 22 62 C14.74 62 7.48 62 0 62 C0 41.54 0 21.08 0 0 Z " fill="#FED70F" transform="translate(157,78)"/>
<path d="M0 0 C1.65 0 3.3 0 5 0 C5 118.14 5 236.28 5 358 C-192.34 358 -389.68 358 -593 358 C-592.505 356.02 -592.505 356.02 -592 354 C-591.34 354.33 -590.68 354.66 -590 355 C-588.54489323 355.15130319 -587.08372718 355.24640359 -585.622244 355.31194198 C-584.71606258 355.35326213 -583.80988117 355.39458227 -582.87623971 355.43715454 C-581.39507577 355.49527199 -581.39507577 355.49527199 -579.88398933 355.55456352 C-578.85307372 355.59669639 -577.8221581 355.63882925 -576.76000262 355.68223887 C-565.4584238 356.10937105 -554.16428867 356.13933008 -542.85617065 356.12698364 C-540.51349619 356.128139 -538.17082191 356.1297293 -535.82814801 356.13171089 C-529.45927353 356.13584665 -523.09041423 356.13383988 -516.72153974 356.13072467 C-510.53761768 356.1281869 -504.353697 356.13136735 -498.16977535 356.13387203 C-484.76258099 356.13911122 -471.35539141 356.13869238 -457.9481966 356.13579312 C-446.22608528 356.13327082 -434.50397571 356.13262402 -422.78186417 356.13381577 C-422.00227122 356.13389215 -421.22267827 356.13396854 -420.41946129 356.13404724 C-417.25449949 356.1343586 -414.08953769 356.134677 -410.92457589 356.135007 C-381.29625921 356.13805942 -351.66794558 356.13530202 -322.03962936 356.1299101 C-295.71994009 356.12515678 -269.40025564 356.12559693 -243.08056641 356.13037109 C-213.47691401 356.13572306 -183.87326429 356.13785129 -154.26961148 356.13475883 C-151.116225 356.13443812 -147.96283853 356.13412528 -144.80945206 356.13381577 C-144.03306181 356.13373669 -143.25667156 356.13365761 -142.45675434 356.13357614 C-130.72988541 356.1324384 -119.00301841 356.13376926 -107.27614975 356.13629532 C-93.95707813 356.13915013 -80.63801203 356.13844883 -67.3189411 356.13301457 C-60.52136392 356.1303327 -53.72379718 356.12936784 -46.92621994 356.13266373 C-40.71068179 356.13563199 -34.49516267 356.13402497 -28.27962627 356.12868617 C-26.02519278 356.12756437 -23.7707577 356.12814797 -21.51632522 356.13056196 C-18.46392361 356.13358109 -15.41158809 356.13050561 -12.35918999 356.12584114 C-11.47404872 356.12818231 -10.58890745 356.13052347 -9.67694372 356.13293558 C-5.65105379 356.12055047 -1.92822641 356.00948633 2 355 C2.19605484 310.20840788 2.37634374 265.41677654 2.53537826 220.62503685 C2.5541515 215.34141413 2.57305577 210.05779188 2.59204102 204.77416992 C2.59581856 203.72226045 2.59959611 202.67035099 2.60348812 201.58656547 C2.66503056 184.53632194 2.73719681 167.48613899 2.8132638 150.43595477 C2.89103362 132.95129188 2.95744574 115.46661269 3.01323253 97.9818657 C3.04803857 87.18589678 3.09178809 76.39003918 3.14684484 65.59415422 C3.18371122 58.19903486 3.20958238 50.80392893 3.22667392 43.40873762 C3.23687551 39.13699814 3.25205214 34.86542331 3.28024101 30.59376144 C3.30591322 26.68731787 3.31785906 22.78108792 3.31862888 18.8745623 C3.32137764 17.4572708 3.32927641 16.03997856 3.34269472 14.62274792 C3.36012701 12.70406039 3.35740334 10.78522075 3.35352612 8.86645794 C3.35770304 7.79830465 3.36187996 6.73015136 3.36618346 5.62962979 C2.95438465 2.67242794 2.33068966 1.78731338 0 0 Z " fill="#082445" transform="translate(594,1)"/>
<path d="M0 0 C0.33 0 0.66 0 1 0 C1 15.84 1 31.68 1 48 C-6.92 48 -14.84 48 -23 48 C-23 68.46 -23 88.92 -23 110 C-23.66 110 -24.32 110 -25 110 C-25.33 91.85 -25.66 73.7 -26 55 C-27.32 54.67 -28.64 54.34 -30 54 C-30.495 52.515 -30.495 52.515 -31 51 C-34.91402949 52.26941497 -36.79072873 53.51167694 -39 57 C-39.66 56.67 -40.32 56.34 -41 56 C-34.60002139 46.83123632 -28.12050342 37.74481951 -21.37329102 28.82788086 C-18.07158847 24.45579552 -14.85333597 20.03381028 -11.6875 15.5625 C-3.61672243 4.18079841 -3.61672243 4.18079841 0 0 Z " fill="#012650" transform="translate(358,177)"/>
<path d="M0 0 C0.66 0 1.32 0 2 0 C2 28.38 2 56.76 2 86 C-4.5659052 89.2829526 -12.65909482 87 -20 87 C-19.67 105.81 -19.34 124.62 -19 144 C16.31 144.33 51.62 144.66 88 145 C88.33 125.86 88.66 106.72 89 87 C81.74 87 74.48 87 67 87 C66.01 86.01 65.02 85.02 64 84 C64.66 84 65.32 84 66 84 C66 68.16 66 52.32 66 36 C67.32 36 68.64 36 70 36 C70.66 36.99 71.32 37.98 72 39 C71.67 39.99 71.34 40.98 71 42 C70.34 41.01 69.68 40.02 69 39 C68.67 53.85 68.34 68.7 68 84 C75.59 84 83.18 84 91 84 C91 104.79 91 125.58 91 147 C53.71 147 16.42 147 -22 147 C-22 126.54 -22 106.08 -22 85 C-14.74 85 -7.48 85 0 85 C0 56.95 0 28.9 0 0 Z " fill="#D7C53B" transform="translate(179,140)"/>
<path d="M0 0 C3.7554966 3.7554966 6.51731735 6.91266203 9.5 11.1875 C10.36919045 12.42360006 11.23901565 13.65925396 12.109375 14.89453125 C12.57150391 15.55275879 13.03363281 16.21098633 13.50976562 16.88916016 C16.2274713 20.73864955 18.99016088 24.55566466 21.75 28.375 C22.28044922 29.11129639 22.81089844 29.84759277 23.35742188 30.60620117 C26.85079965 35.44557609 30.40271891 40.23737986 34 45 C33.505 45.99 33.505 45.99 33 47 C32.67 46.67 32.34 46.34 32 46 C31.34 46.99 30.68 47.98 30 49 C29.34 49 28.68 49 28 49 C27.67 48.34 27.34 47.68 27 47 C25.515 46.505 25.515 46.505 24 46 C24 66.46 24 86.92 24 108 C23.67 108 23.34 108 23 108 C23 87.54 23 67.08 23 46 C15.41 46 7.82 46 0 46 C0 30.82 0 15.64 0 0 Z " fill="#022650" transform="translate(247,178)"/>
<path d="M0 0 C0.33 0 0.66 0 1 0 C1 28.05 1 56.1 1 85 C8.26 85 15.52 85 23 85 C23 105.46 23 125.92 23 147 C-14.29 147 -51.58 147 -90 147 C-90 126.54 -90 106.08 -90 85 C-82.08 85 -74.16 85 -66 85 C-66.33 69.49 -66.66 53.98 -67 38 C-68.65 40.31 -70.3 42.62 -72 45 C-73.74627478 42.38058783 -74.38722388 40.96175123 -75 38 C-73.68 38 -72.36 38 -71 38 C-70.34 37.01 -69.68 36.02 -69 35 C-67.35 35.33 -65.7 35.66 -64 36 C-64 52.5 -64 69 -64 86 C-71.92 86 -79.84 86 -88 86 C-88 105.47 -88 124.94 -88 145 C-51.7 145 -15.4 145 22 145 C22 125.86 22 106.72 22 87 C14.74 87 7.48 87 0 87 C-1.74779899 85.25220101 -1.12608481 82.97059922 -1.13552856 80.64161682 C-1.13249222 79.48991249 -1.13249222 79.48991249 -1.12939453 78.31494141 C-1.13202301 77.10763115 -1.13202301 77.10763115 -1.13470459 75.87593079 C-1.13912479 73.20111976 -1.13618398 70.52637426 -1.1328125 67.8515625 C-1.13348562 65.99929797 -1.13445572 64.14703352 -1.13571167 62.29476929 C-1.13718898 58.40581423 -1.13503352 54.51688209 -1.13037109 50.62792969 C-1.12468172 45.63865134 -1.12794758 40.64942688 -1.13394356 35.66015053 C-1.13755505 31.83236281 -1.13640773 28.00458788 -1.13381577 24.17679977 C-1.13314772 22.33716195 -1.13397068 20.49752298 -1.13629532 18.65788651 C-1.13883058 16.08650889 -1.13496849 13.51521874 -1.12939453 10.94384766 C-1.13141876 10.18009323 -1.13344299 9.41633881 -1.13552856 8.62944031 C-1.12286736 5.48166169 -1.00317127 3.00951382 0 0 Z " fill="#DDCA40" transform="translate(425,140)"/>
<path d="M0 0 C7.26 0 14.52 0 22 0 C22 28.05 22 56.1 22 85 C14.74 85 7.48 85 0 85 C0 105.46 0 125.92 0 147 C37.29 147 74.58 147 113 147 C113 147.33 113 147.66 113 148 C75.38 148 37.76 148 -1 148 C-1 126.55 -1 105.1 -1 83 C5.93 83 12.86 83 20 83 C20 55.94 20 28.88 20 1 C13.4 1 6.8 1 0 1 C0 0.67 0 0.34 0 0 Z " fill="#273612" transform="translate(157,140)"/>
<path d="M0 0 C21.7701704 -0.60163214 21.7701704 -0.60163214 31.09960938 -0.73242188 C37.45008924 -0.82187359 43.79730501 -0.92728996 50.14526367 -1.1315918 C55.26792023 -1.2954139 60.38707687 -1.38442193 65.51215172 -1.42315865 C67.4601726 -1.4507331 69.40801574 -1.50459213 71.35453224 -1.58595085 C86.25033132 -2.1833981 86.25033132 -2.1833981 90.94427109 1.5438652 C94.72891357 5.58991345 97.44826354 10.1061179 100 15 C99.67 15.66 99.34 16.32 99 17 C97 15.75 97 15.75 95 14 C95 12.68 95 11.36 95 10 C92.34771188 8.92474806 89.71631546 7.90543849 87 7 C86.505 4.03 86.505 4.03 86 1 C58.28 1 30.56 1 2 1 C2 20.8 2 40.6 2 61 C8.6 61 15.2 61 22 61 C22 61.33 22 61.66 22 62 C14.74 62 7.48 62 0 62 C0 41.54 0 21.08 0 0 Z " fill="#E4D142" transform="translate(157,78)"/>
<path d="M0 0 C4.03919345 4.03919345 6.84168113 7.39787822 10 12 C9.67 12.66 9.34 13.32 9 14 C8.59007812 13.43410156 8.18015625 12.86820313 7.7578125 12.28515625 C7.21898437 11.55167969 6.68015625 10.81820312 6.125 10.0625 C5.59132812 9.33160156 5.05765625 8.60070312 4.5078125 7.84765625 C3.11987896 5.88901765 3.11987896 5.88901765 1 5 C1 18.2 1 31.4 1 45 C7.6 45 14.2 45 21 45 C20.505 42.525 20.505 42.525 20 40 C19.01 39.34 18.02 38.68 17 38 C17.33 36.35 17.66 34.7 18 33 C18.33 33.66 18.66 34.32 19 35 C19.66 35 20.32 35 21 35 C21 35.66 21 36.32 21 37 C21.66 37 22.32 37 23 37 C22.835 36.236875 22.67 35.47375 22.5 34.6875 C22 32 22 32 22 29 C25.96 34.28 29.92 39.56 34 45 C33.505 45.99 33.505 45.99 33 47 C32.67 46.67 32.34 46.34 32 46 C31.34 46.99 30.68 47.98 30 49 C29.34 49 28.68 49 28 49 C27.67 48.34 27.34 47.68 27 47 C25.515 46.505 25.515 46.505 24 46 C24 66.46 24 86.92 24 108 C23.67 108 23.34 108 23 108 C23 87.54 23 67.08 23 46 C15.41 46 7.82 46 0 46 C0 30.82 0 15.64 0 0 Z " fill="#0D2B39" transform="translate(247,178)"/>
<path d="M0 0 C1.32 0 2.64 0 4 0 C4 0.99 4 1.98 4 3 C30.4 3 56.8 3 84 3 C84 3.99 84 4.98 84 6 C54.63 6 25.26 6 -5 6 C-4.67 5.01 -4.34 4.02 -4 3 C-2.68 3 -1.36 3 0 3 C0 2.01 0 1.02 0 0 Z " fill="#1E3A3B" transform="translate(364,72)"/>
<path d="M0 0 C0.33 0 0.66 0 1 0 C1 15.84 1 31.68 1 48 C-6.92 48 -14.84 48 -23 48 C-23 68.46 -23 88.92 -23 110 C-23.33 110 -23.66 110 -24 110 C-24 88.88 -24 67.76 -24 46 C-16.41 46 -8.82 46 -1 46 C-1 32.47 -1 18.94 -1 5 C-1.66 4.67 -2.32 4.34 -3 4 C-2.02727325 2.64664105 -1.0260734 1.31337396 0 0 Z " fill="#36421F" transform="translate(358,177)"/>
<path d="M0 0 C0.33 0 0.66 0 1 0 C1 28.05 1 56.1 1 85 C7.93 85.33 14.86 85.66 22 86 C22 86.33 22 86.66 22 87 C18.35418313 87.02887512 14.70839537 87.04675585 11.0625 87.0625 C9.50112305 87.07506836 9.50112305 87.07506836 7.90820312 87.08789062 C6.91884766 87.09111328 5.92949219 87.09433594 4.91015625 87.09765625 C3.53549194 87.10551147 3.53549194 87.10551147 2.13305664 87.11352539 C0 87 0 87 -1 86 C-1.1003999 83.4295357 -1.13617264 80.88591831 -1.12939453 78.31494141 C-1.13114685 77.5100679 -1.13289917 76.7051944 -1.13470459 75.87593079 C-1.13912479 73.20111976 -1.13618398 70.52637426 -1.1328125 67.8515625 C-1.13348562 65.99929797 -1.13445572 64.14703352 -1.13571167 62.29476929 C-1.13718898 58.40581423 -1.13503352 54.51688209 -1.13037109 50.62792969 C-1.12468172 45.63865134 -1.12794758 40.64942688 -1.13394356 35.66015053 C-1.13755505 31.83236281 -1.13640773 28.00458788 -1.13381577 24.17679977 C-1.13314772 22.33716195 -1.13397068 20.49752298 -1.13629532 18.65788651 C-1.13883058 16.08650889 -1.13496849 13.51521874 -1.12939453 10.94384766 C-1.13141876 10.18009323 -1.13344299 9.41633881 -1.13552856 8.62944031 C-1.12286736 5.48166169 -1.00317127 3.00951382 0 0 Z " fill="#F2D32F" transform="translate(425,140)"/>
<path d="M0 0 C0.99 0 1.98 0 3 0 C2.89241047 9.95326705 2.77975921 19.90646274 2.66066074 29.85959911 C2.60551625 34.48132678 2.55210993 39.10306086 2.50268555 43.72485352 C2.45491684 48.18582371 2.40256977 52.64671892 2.34705925 57.10759926 C2.32669228 58.80880171 2.30797002 60.51002467 2.29092598 62.21126366 C2.26675635 64.59558898 2.23671948 66.97977407 2.20532227 69.36401367 C2.19668907 70.4170594 2.19668907 70.4170594 2.18788147 71.49137878 C2.13248197 75.19699001 1.73596733 78.32016336 1 82 C7.6 82 14.2 82 21 82 C21 82.33 21 82.66 21 83 C14.07 83 7.14 83 0 83 C0 55.61 0 28.22 0 0 Z " fill="#042944" transform="translate(427,141)"/>
<path d="M0 0 C4 0 4 0 6.25 1.875 C8 4 8 4 8 6 C8.99 6.33 9.98 6.66 11 7 C11.33 8.98 11.66 10.96 12 13 C12.33 10.69 12.66 8.38 13 6 C13.66 6 14.32 6 15 6 C17.48887372 10.68493876 16.85687773 13.9444214 16 19 C16.99 19 17.98 19 19 19 C21.125 23.625 21.125 23.625 20 27 C20.66 27 21.32 27 22 27 C21.67 27.99 21.34 28.98 21 30 C15.39734095 22.90248831 10.00129159 15.70091717 4.875 8.25 C4.38990967 7.54681641 3.90481934 6.84363281 3.4050293 6.11914062 C0 1.13010475 0 1.13010475 0 0 Z " fill="#0E2C40" transform="translate(249,82)"/>
<path d="M0 0 C3.4375 0.8125 3.4375 0.8125 5.4375 3.8125 C5.24602432 6.87611086 4.85927804 9.08610449 3.3125 11.75 C0.20844169 13.50896638 -2.22570548 12.66186588 -5.5625 11.8125 C-7.5625 8.8125 -7.5625 8.8125 -7.375 5.25 C-6.23767142 0.43822523 -4.87993559 -0.25683872 0 0 Z " fill="#979849" transform="translate(459.5625,274.1875)"/>
<path d="M0 0 C0.33 0.66 0.66 1.32 1 2 C0.6390625 2.43570313 0.278125 2.87140625 -0.09375 3.3203125 C-3.20577001 7.31407151 -4.64165788 9.73840541 -4 15 C-4.99 14.67 -5.98 14.34 -7 14 C-7.268125 14.61875 -7.53625 15.2375 -7.8125 15.875 C-9 18 -9 18 -12 20 C-12.41416399 22.58089562 -12.43915839 25.076065 -12.49609375 27.6875 C-13 30 -13 30 -15.03515625 31.3125 C-15.68355469 31.539375 -16.33195312 31.76625 -17 32 C-16.67 31.01 -16.34 30.02 -16 29 C-16.99 29 -17.98 29 -19 29 C-19.12375 29.598125 -19.2475 30.19625 -19.375 30.8125 C-20 33 -20 33 -22 36 C-22.99 36 -23.98 36 -25 36 C-23.71042988 33.29869777 -22.29647113 30.85907346 -20.56640625 28.41796875 C-20.08719727 27.73984131 -19.60798828 27.06171387 -19.11425781 26.36303711 C-18.60217773 25.64510986 -18.09009766 24.92718262 -17.5625 24.1875 C-16.77311035 23.07483765 -16.77311035 23.07483765 -15.96777344 21.93969727 C-10.72363558 14.5689441 -5.378202 7.27327712 0 0 Z " fill="#DEC836" transform="translate(346,96)"/>
<path d="M0 0 C1.875 0.25 1.875 0.25 4 1 C5.25 3.0625 5.25 3.0625 6 5 C6.99 5 7.98 5 9 5 C10.49821059 8.37097383 11 10.20442119 11 14 C11.99 14 12.98 14 14 14 C16.49698489 16.69674368 17.76067171 19.56801397 19 23 C19.99 23 20.98 23 22 23 C22.33 22.01 22.66 21.02 23 20 C23.66 20 24.32 20 25 20 C24.67 21.65 24.34 23.3 24 25 C23.34 25 22.68 25 22 25 C22.66 27.64 23.32 30.28 24 33 C19.71136823 29.0019898 16.44590066 24.63089468 13.125 19.8125 C12.60196289 19.06162109 12.07892578 18.31074219 11.54003906 17.53710938 C10.50103169 16.04510249 9.46386975 14.5518085 8.42871094 13.05712891 C7.183408 11.26407994 5.92821594 9.478999 4.6640625 7.69921875 C4.03242188 6.80847656 3.40078125 5.91773438 2.75 5 C1.93789063 3.8553125 1.93789063 3.8553125 1.109375 2.6875 C0 1 0 1 0 0 Z " fill="#E5CC30" transform="translate(259,193)"/>
<path d="M0 0 C1.25087034 3.61362542 0.66827752 6.28734713 0 10 C0.061875 11.051875 0.12375 12.10375 0.1875 13.1875 C0 16 0 16 -2 17.875 C-2.99 18.431875 -2.99 18.431875 -4 19 C-4.33 18.01 -4.66 17.02 -5 16 C-8.91402949 17.26941497 -10.79072873 18.51167694 -13 22 C-13.66 21.67 -14.32 21.34 -15 21 C-13.06348069 18.24930822 -11.12561158 15.49957006 -9.1875 12.75 C-8.36668945 11.58404297 -8.36668945 11.58404297 -7.52929688 10.39453125 C-6.99755859 9.64042969 -6.46582031 8.88632813 -5.91796875 8.109375 C-5.43094482 7.41811523 -4.9439209 6.72685547 -4.44213867 6.01464844 C-2.99055484 3.98680524 -1.50374075 1.98938466 0 0 Z " fill="#142F3D" transform="translate(332,212)"/>
<path d="M0 0 C4.03919345 4.03919345 6.84168113 7.39787822 10 12 C9.67 12.66 9.34 13.32 9 14 C8.59007812 13.43410156 8.18015625 12.86820313 7.7578125 12.28515625 C7.21898437 11.55167969 6.68015625 10.81820312 6.125 10.0625 C5.59132812 9.33160156 5.05765625 8.60070312 4.5078125 7.84765625 C3.11987896 5.88901765 3.11987896 5.88901765 1 5 C1 18.2 1 31.4 1 45 C8.26 45 15.52 45 23 45 C23 45.33 23 45.66 23 46 C15.41 46 7.82 46 0 46 C0 30.82 0 15.64 0 0 Z " fill="#102A32" transform="translate(247,178)"/>
<path d="M0 0 C0.66 1.32 1.32 2.64 2 4 C1.01 4.33 0.02 4.66 -1 5 C-1.5817996 7.05138322 -1.5817996 7.05138322 -1.8125 9.4375 C-2.27734375 11.921875 -2.27734375 11.921875 -3 14 C-5.875 15.1875 -5.875 15.1875 -9 16 C-11.28805616 18.8600702 -12.77420129 21.36494112 -14 24.8125 C-15 27 -15 27 -17.125 27.8125 C-17.74375 27.874375 -18.3625 27.93625 -19 28 C-19 28.66 -19 29.32 -19 30 C-19.66 29.67 -20.32 29.34 -21 29 C-14.15232544 19.21412029 -7.24570004 9.49625839 0 0 Z " fill="#192F3A" transform="translate(354,182)"/>
<path d="M0 0 C0.99 0 1.98 0 3 0 C3.5745952 3.73486879 4 7.21293268 4 11 C4.99 11.33 5.98 11.66 7 12 C7 13.32 7 14.64 7 16 C7.66 16.33 8.32 16.66 9 17 C8.01 17 7.02 17 6 17 C4.6496582 15.62304688 4.6496582 15.62304688 3.30078125 13.71875 C2.81416016 13.04199219 2.32753906 12.36523438 1.82617188 11.66796875 C1.32666016 10.95253906 0.82714844 10.23710937 0.3125 9.5 C-0.19861328 8.78457031 -0.70972656 8.06914062 -1.23632812 7.33203125 C-2.49983511 5.56075977 -3.75378948 3.78346291 -5 2 C-4.360625 1.855625 -3.72125 1.71125 -3.0625 1.5625 C-1.02454854 1.18992819 -1.02454854 1.18992819 0 0 Z " fill="#0E2B3F" transform="translate(295,138)"/>
<path d="M0 0 C1.98 0.66 3.96 1.32 6 2 C6 1.34 6 0.68 6 0 C8.97 0.495 8.97 0.495 12 1 C11.07161713 2.31896465 10.13194268 3.62998689 9.1875 4.9375 C8.40439453 6.03384766 8.40439453 6.03384766 7.60546875 7.15234375 C6 9 6 9 3 10 C3 8.68 3 7.36 3 6 C1.68 5.67 0.36 5.34 -1 5 C-0.67 3.35 -0.34 1.7 0 0 Z " fill="#042655" transform="translate(299,144)"/>
<path d="M0 0 C3.9252025 3.70090521 6.94580156 7.54959656 10 12 C9.67 12.66 9.34 13.32 9 14 C7.68 14 6.36 14 5 14 C4.01 14.33 3.02 14.66 2 15 C0.93224776 13.03533587 -0.06553465 11.03144641 -1 9 C-0.67 8.34 -0.34 7.68 0 7 C0.66 7 1.32 7 2 7 C1.34 4.69 0.68 2.38 0 0 Z " fill="#EFD320" transform="translate(276,121)"/>
<path d="M0 0 C4.21814817 3.9700218 7.61227103 8.30840284 11 13 C10.67 13.66 10.34 14.32 10 15 C9.01 13.68 8.02 12.36 7 11 C5.68 11.33 4.36 11.66 3 12 C3.33 10.35 3.66 8.7 4 7 C3.01 7 2.02 7 1 7 C0.67 4.69 0.34 2.38 0 0 Z M-2 8 C-1.34 8.33 -0.68 8.66 0 9 C0 9.99 0 10.98 0 12 C0.99 12.33 1.98 12.66 3 13 C1.35 13.33 -0.3 13.66 -2 14 C-2.66 12.68 -3.32 11.36 -4 10 C-3.34 9.34 -2.68 8.68 -2 8 Z " fill="#112D42" transform="translate(281,225)"/>
<path d="M0 0 C3.9252025 3.70090521 6.94580156 7.54959656 10 12 C10.763125 11.236875 11.52625 10.47375 12.3125 9.6875 C14.20833333 7.79166667 16.10416667 5.89583333 18 4 C17.67 5.98 17.34 7.96 17 10 C16.01 10 15.02 10 14 10 C13.34 11.32 12.68 12.64 12 14 C9.03 13.505 9.03 13.505 6 13 C5.67 13.66 5.34 14.32 5 15 C4.43737205 12.82986363 3.9579909 10.71993931 3.625 8.5 C2.92803908 5.71215633 1.76622743 4.22698241 0 2 C0 1.34 0 0.68 0 0 Z " fill="#223528" transform="translate(292,240)"/>
<path d="M0 0 C0.99 0.66 1.98 1.32 3 2 C0.69 4.97 -1.62 7.94 -4 11 C-8.875 6.375 -8.875 6.375 -10 3 C-9.34 2.67 -8.68 2.34 -8 2 C-7.67 2.99 -7.34 3.98 -7 5 C-6.34 5 -5.68 5 -5 5 C-4.731875 4.360625 -4.46375 3.72125 -4.1875 3.0625 C-3 1 -3 1 0 0 Z " fill="#DCCA32" transform="translate(307,242)"/>
<path d="M0 0 C1.4783226 2.95664519 1.06032783 5.74229737 1 9 C-0.32 9.33 -1.64 9.66 -3 10 C-2.67 9.01 -2.34 8.02 -2 7 C-2.99 7 -3.98 7 -5 7 C-5.12375 7.598125 -5.2475 8.19625 -5.375 8.8125 C-6 11 -6 11 -8 14 C-8.99 14 -9.98 14 -11 14 C-9.34406255 10.41213553 -7.37162309 7.16216412 -5 4 C-4.01 4 -3.02 4 -2 4 C-1.34 2.68 -0.68 1.36 0 0 Z " fill="#FDD718" transform="translate(332,118)"/>
<path d="M0 0 C0.33 0 0.66 0 1 0 C1.3125 2.25 1.3125 2.25 1 5 C-0.66239012 6.33866152 -2.32989656 7.67097402 -4 9 C-5.61987801 10.97513768 -7.18155513 12.99917655 -8.6875 15.0625 C-9.45449219 16.10535156 -10.22148437 17.14820313 -11.01171875 18.22265625 C-12.37389146 20.12541617 -13.70195297 22.05292946 -15 24 C-15.66 23.67 -16.32 23.34 -17 23 C-16.66266846 22.55197021 -16.32533691 22.10394043 -15.9777832 21.64233398 C-14.42181123 19.57471476 -12.8671497 17.50611361 -11.3125 15.4375 C-10.78205078 14.73302734 -10.25160156 14.02855469 -9.70507812 13.30273438 C-7.14275157 9.8915389 -4.61508214 6.46765195 -2.16796875 2.97265625 C-1.45253906 1.99167969 -0.73710937 1.01070312 0 0 Z " fill="#D6C337" transform="translate(320,132)"/>
<path d="M0 0 C0.66 0 1.32 0 2 0 C2 0.66 2 1.32 2 2 C2.99 2 3.98 2 5 2 C5 3.32 5 4.64 5 6 C5.66 6 6.32 6 7 6 C7 5.34 7 4.68 7 4 C7.66 4 8.32 4 9 4 C10.20628008 6.33214148 11.1654738 8.49642139 12 11 C11.0625 13.1875 11.0625 13.1875 10 15 C8.33048421 12.6895094 6.66428386 10.37675417 5 8.0625 C4.52304687 7.40314453 4.04609375 6.74378906 3.5546875 6.06445312 C0 1.11328125 0 1.11328125 0 0 Z " fill="#E7CF2D" transform="translate(283,226)"/>
<path d="M0 0 C1.31625194 2.63250388 0.74813658 3.80179056 0.0625 6.625 C-0.13214844 7.44226563 -0.32679688 8.25953125 -0.52734375 9.1015625 C-0.68332031 9.72804688 -0.83929688 10.35453125 -1 11 C-1.99 11 -2.98 11 -4 11 C-5.45034604 12.30456502 -5.45034604 12.30456502 -6.6875 14 C-7.450625 14.99 -8.21375 15.98 -9 17 C-9.66 16.67 -10.32 16.34 -11 16 C-7.37 10.72 -3.74 5.44 0 0 Z " fill="#DCC92F" transform="translate(358,79)"/>
<path d="M0 0 C3.0625 0.1875 3.0625 0.1875 5.0625 2.1875 C5.1875 4.8125 5.1875 4.8125 5.0625 7.1875 C4.0725 7.6825 4.0725 7.6825 3.0625 8.1875 C2.7325 6.8675 2.4025 5.5475 2.0625 4.1875 C1.0725 4.1875 0.0825 4.1875 -0.9375 4.1875 C-1.2675 3.1975 -1.5975 2.2075 -1.9375 1.1875 C-1.9375 3.4975 -1.9375 5.8075 -1.9375 8.1875 C-2.5975 8.1875 -3.2575 8.1875 -3.9375 8.1875 C-3.97991723 5.85455225 -3.97842937 3.52047433 -3.9375 1.1875 C-2.9375 0.1875 -2.9375 0.1875 0 0 Z " fill="#495219" transform="translate(457.9375,275.8125)"/>
<path d="M0 0 C0.66 0.33 1.32 0.66 2 1 C-0.97 5.29 -3.94 9.58 -7 14 C-7.66 12.68 -8.32 11.36 -9 10 C-8.01 10 -7.02 10 -6 10 C-6.33 8.02 -6.66 6.04 -7 4 C-5.35 3.67 -3.7 3.34 -2 3 C-2 2.34 -2 1.68 -2 1 C-1.34 0.67 -0.68 0.34 0 0 Z " fill="#172C34" transform="translate(357,78)"/>
<path d="M0 0 C3 1 3 1 4.4375 3.4375 C5.73648404 6.08840974 5.73648404 6.08840974 7.9375 6.9375 C11.02199477 8.52648215 12.23173456 11.0949925 14 14 C13.67 14.66 13.34 15.32 13 16 C11 14.75 11 14.75 9 13 C9 11.68 9 10.36 9 9 C6.34771188 7.92474806 3.71631546 6.90543849 1 6 C0.67 4.02 0.34 2.04 0 0 Z " fill="#FADA16" transform="translate(243,79)"/>
<path d="M0 0 C0.33 0.99 0.66 1.98 1 3 C0.07421875 4.6484375 0.07421875 4.6484375 -1.3125 6.375 C-3.04656833 8.62357212 -4.06296279 10.17036991 -5.0625 12.875 C-5.5265625 13.926875 -5.5265625 13.926875 -6 15 C-8.125 15.8125 -8.125 15.8125 -10 16 C-10 16.66 -10 17.32 -10 18 C-10.66 17.67 -11.32 17.34 -12 17 C-8.04 11.39 -4.08 5.78 0 0 Z " fill="#26392C" transform="translate(345,194)"/>
<path d="M0 0 C3.375 0.9375 3.375 0.9375 5.375 3.9375 C5.125 7.0625 5.125 7.0625 4.375 9.9375 C3.385 10.4325 3.385 10.4325 2.375 10.9375 C2.395625 9.803125 2.41625 8.66875 2.4375 7.5 C2.79077477 4.12174326 2.79077477 4.12174326 1.375 2.9375 C-0.62458364 2.89669217 -2.62545254 2.89495644 -4.625 2.9375 C-5.285 4.5875 -5.945 6.2375 -6.625 7.9375 C-7.375 6.1875 -7.375 6.1875 -7.625 3.9375 C-5.32339078 0.38918578 -4.27110443 -0.07363973 0 0 Z " fill="#A6A464" transform="translate(459.625,274.0625)"/>
<path d="M0 0 C1.60517097 0.08733576 3.20921662 0.19552224 4.8125 0.3125 C6.15248047 0.39951172 6.15248047 0.39951172 7.51953125 0.48828125 C10.35844129 1.07394616 11.32342573 1.6626261 13 4 C13.41857482 7.83693587 13.54644269 10.11203064 11.5 13.4375 C11.005 13.953125 10.51 14.46875 10 15 C9.34 14.67 8.68 14.34 8 14 C8.515625 13.46375 9.03125 12.9275 9.5625 12.375 C11.32605545 9.99503501 11.32605545 9.99503501 10.6875 6.75 C10.460625 5.8425 10.23375 4.935 10 4 C4.94990405 3.06213918 4.94990405 3.06213918 0 4 C0 2.68 0 1.36 0 0 Z " fill="#1E362C" transform="translate(453,272)"/>
<path d="M0 0 C0.66 0 1.32 0 2 0 C2 0.66 2 1.32 2 2 C4.97 2.495 4.97 2.495 8 3 C8.33 5.31 8.66 7.62 9 10 C8.01 10 7.02 10 6 10 C4.39453125 8.06640625 4.39453125 8.06640625 2.8125 5.5625 C2.28269531 4.73878906 1.75289063 3.91507812 1.20703125 3.06640625 C0 1 0 1 0 0 Z " fill="#243431" transform="translate(277,121)"/>
<path d="M0 0 C5.80205656 5.64524422 5.80205656 5.64524422 8 9 C8 9.66 8 10.32 8 11 C6.35 11 4.7 11 3 11 C0 4.5 0 4.5 0 0 Z " fill="#E4C92F" transform="translate(257,95)"/>
<path d="M0 0 C0.66 0 1.32 0 2 0 C1.67 1.65 1.34 3.3 1 5 C0.34 5 -0.32 5 -1 5 C-0.34 7.64 0.32 10.28 1 13 C-1.5625 10.8125 -1.5625 10.8125 -4 8 C-3.8125 5.1875 -3.8125 5.1875 -3 3 C-2.34 3 -1.68 3 -1 3 C-0.67 2.01 -0.34 1.02 0 0 Z " fill="#EBCD28" transform="translate(282,213)"/>
<path d="M0 0 C3.9252025 3.70090521 6.94580156 7.54959656 10 12 C9.67 12.66 9.34 13.32 9 14 C8.59007812 13.43410156 8.18015625 12.86820313 7.7578125 12.28515625 C7.21898437 11.55167969 6.68015625 10.81820312 6.125 10.0625 C5.59132812 9.33160156 5.05765625 8.60070312 4.5078125 7.84765625 C3.11987896 5.88901765 3.11987896 5.88901765 1 5 C1 7.64 1 10.28 1 13 C0.67 13 0.34 13 0 13 C0 8.71 0 4.42 0 0 Z " fill="#263622" transform="translate(247,178)"/>
<path d="M0 0 C1.65 0 3.3 0 5 0 C7.125 4.625 7.125 4.625 6 8 C6.66 8 7.32 8 8 8 C7.67 8.99 7.34 9.98 7 11 C5.82750647 9.54634731 4.66216184 8.08692581 3.5 6.625 C2.52546875 5.40683594 2.52546875 5.40683594 1.53125 4.1640625 C0 2 0 2 0 0 Z " fill="#163333" transform="translate(263,101)"/>
<path d="M0 0 C0.99 0.33 1.98 0.66 3 1 C1.02 3.97 -0.96 6.94 -3 10 C-4.74627478 7.38058783 -5.38722388 5.96175123 -6 3 C-4.68 3 -3.36 3 -2 3 C-1.34 2.01 -0.68 1.02 0 0 Z " fill="#EBCF26" transform="translate(356,175)"/>
<path d="M0 0 C1.32 0.66 2.64 1.32 4 2 C-0.455 7.94 -0.455 7.94 -5 14 C-5.33 13.01 -5.66 12.02 -6 11 C-5.34 11 -4.68 11 -4 11 C-3.896875 10.484375 -3.79375 9.96875 -3.6875 9.4375 C-2.75736134 6.13973565 -1.38604488 3.13366668 0 0 Z " fill="#20352D" transform="translate(317,130)"/>
<path d="M0 0 C0.66 0 1.32 0 2 0 C2 1.32 2 2.64 2 4 C2.66 4.33 3.32 4.66 4 5 C3.02471263 6.33617352 2.04466681 7.6688751 1.0625 9 C0.24458984 10.11375 0.24458984 10.11375 -0.58984375 11.25 C-1.05519531 11.8275 -1.52054687 12.405 -2 13 C-2.33 13 -2.66 13 -3 13 C-2.67 10.36 -2.34 7.72 -2 5 C-1.01 5.33 -0.02 5.66 1 6 C0.67 4.02 0.34 2.04 0 0 Z " fill="#EAD328" transform="translate(348,181)"/>
<path d="M0 0 C1.32 0.33 2.64 0.66 4 1 C1.69 4.3 -0.62 7.6 -3 11 C-3.33 9.68 -3.66 8.36 -4 7 C-3.34 7 -2.68 7 -2 7 C-1.855625 6.030625 -1.71125 5.06125 -1.5625 4.0625 C-1 1 -1 1 0 0 Z " fill="#DEC735" transform="translate(321,222)"/>
<path d="M0 0 C3.9252025 3.70090521 6.94580156 7.54959656 10 12 C9.67 12.66 9.34 13.32 9 14 C8.1028125 12.7934375 8.1028125 12.7934375 7.1875 11.5625 C5.19052724 8.77672016 5.19052724 8.77672016 2 8 C1.26953125 6.15234375 1.26953125 6.15234375 0.8125 3.9375 C0.65394531 3.20402344 0.49539063 2.47054687 0.33203125 1.71484375 C0.22246094 1.14894531 0.11289062 0.58304687 0 0 Z " fill="#D1C13A" transform="translate(266,107)"/>
<path d="M0 0 C3.63559661 3.43361902 6.36113346 6.7973607 9 11 C7.35 11 5.7 11 4 11 C3.67 9.35 3.34 7.7 3 6 C2.34 6 1.68 6 1 6 C0.67 4.02 0.34 2.04 0 0 Z " fill="#D8C431" transform="translate(294,146)"/>
<path d="M0 0 C4.55519783 3.93963055 6.15451681 7.26928904 8 13 C7.34 13 6.68 13 6 13 C5.67 13.66 5.34 14.32 5 15 C4.43737205 12.82986363 3.9579909 10.71993931 3.625 8.5 C2.92803908 5.71215633 1.76622743 4.22698241 0 2 C0 1.34 0 0.68 0 0 Z " fill="#1C3036" transform="translate(292,240)"/>
<path d="M0 0 C1.32 0 2.64 0 4 0 C2.34832443 3.5786304 0.21713508 6.74820188 -2 10 C-2.66 8.68 -3.32 7.36 -4 6 C-2.68 5.67 -1.36 5.34 0 5 C0 3.35 0 1.7 0 0 Z " fill="#173333" transform="translate(341,97)"/>
<path d="M0 0 C2.96404505 2.80804268 5.44499019 5.18315774 7 9 C6.34 9 5.68 9 5 9 C5 8.34 5 7.68 5 7 C3.68 7 2.36 7 1 7 C0.67 4.69 0.34 2.38 0 0 Z " fill="#1C3233" transform="translate(281,225)"/>
<path d="M0 0 C0.33 0.66 0.66 1.32 1 2 C-0.1875 5.5625 -0.1875 5.5625 -2 9 C-4.1875 9.9375 -4.1875 9.9375 -6 10 C-4.34832443 6.4213696 -2.21713508 3.25179812 0 0 Z " fill="#D6CA30" transform="translate(327,122)"/>
<path d="M0 0 C0.66 0 1.32 0 2 0 C2 0.66 2 1.32 2 2 C2.928125 2.1546875 2.928125 2.1546875 3.875 2.3125 C6 3 6 3 8 6 C7.34 6 6.68 6 6 6 C5.67 6.99 5.34 7.98 5 9 C4.16396622 7.68921847 3.3312426 6.37632511 2.5 5.0625 C2.0359375 4.33160156 1.571875 3.60070312 1.09375 2.84765625 C0 1 0 1 0 0 Z " fill="#182F33" transform="translate(271,112)"/>
<path d="M0 0 C2.97 0.495 2.97 0.495 6 1 C3.03 4.96 3.03 4.96 0 9 C-0.33 7.68 -0.66 6.36 -1 5 C-0.01 5 0.98 5 2 5 C1.34 3.35 0.68 1.7 0 0 Z " fill="#182E34" transform="translate(305,144)"/>
<path d="M0 0 C0.99 0.66 1.98 1.32 3 2 C1.35 4.31 -0.3 6.62 -2 9 C-2.66 7.68 -3.32 6.36 -4 5 C-2.68 4.34 -1.36 3.68 0 3 C0 2.01 0 1.02 0 0 Z " fill="#172F36" transform="translate(335,106)"/>
<path d="M0 0 C0.33 0 0.66 0 1 0 C1 1.65 1 3.3 1 5 C-0.32 5.33 -1.64 5.66 -3 6 C-3.33 7.32 -3.66 8.64 -4 10 C-4.66 10 -5.32 10 -6 10 C-4.63201951 6.0100569 -2.79608023 3.15686477 0 0 Z " fill="#2F3C2D" transform="translate(316,234)"/>
<path d="M0 0 C2.93200474 2.85276137 5.64315404 5.65079784 8 9 C7.67 9.66 7.34 10.32 7 11 C3.20486142 8.64439674 1.73399187 6.07488089 0 2 C0 1.34 0 0.68 0 0 Z " fill="#D1C53B" transform="translate(286,135)"/>
<path d="M0 0 C1.98 0 3.96 0 6 0 C4.35 2.64 2.7 5.28 1 8 C0.02391783 5.07175348 -0.08226668 3.04386724 0 0 Z " fill="#193534" transform="translate(323,120)"/>
<path d="M0 0 C2.31 0 4.62 0 7 0 C6.6875 1.9375 6.6875 1.9375 6 4 C5.01 4.33 4.02 4.66 3 5 C2.01 3.35 1.02 1.7 0 0 Z " fill="#F9DA06" transform="translate(357,83)"/>
<path d="M0 0 C2.40072955 2.88087546 4.47291037 5.56404834 6 9 C5.401875 8.505 4.80375 8.01 4.1875 7.5 C2.02970006 5.71723582 2.02970006 5.71723582 -1 6 C-0.67 4.02 -0.34 2.04 0 0 Z " fill="#1D3036" transform="translate(275,216)"/>
<path d="M0 0 C0 0.66 0 1.32 0 2 C-0.66 2 -1.32 2 -2 2 C-2.33 2.99 -2.66 3.98 -3 5 C-4.65 5 -6.3 5 -8 5 C-3.375 0 -3.375 0 0 0 Z " fill="#042843" transform="translate(249,72)"/>
<path d="M0 0 C3.3 0.33 6.6 0.66 10 1 C6.99382731 4.00617269 4.17618402 3.59585316 0 4 C0 2.68 0 1.36 0 0 Z " fill="#122E33" transform="translate(453,272)"/>
<path d="M0 0 C2.5 2.3125 2.5 2.3125 5 5 C5 5.99 5 6.98 5 8 C3.0625 7.375 3.0625 7.375 1 6 C0.25 2.875 0.25 2.875 0 0 Z " fill="#21382D" transform="translate(257,192)"/>
<path d="M0 0 C0.66 0 1.32 0 2 0 C2.33 2.31 2.66 4.62 3 7 C2.01 7 1.02 7 0 7 C0 4.69 0 2.38 0 0 Z " fill="#13303E" transform="translate(283,124)"/>
<path d="M0 0 C2.0625 1.75 2.0625 1.75 4 4 C3.75 6.25 3.75 6.25 3 8 C0.37613513 4.93882432 0 4.26826873 0 0 Z " fill="#EACF35" transform="translate(257,95)"/>
<path d="M0 0 C0.66 0.99 1.32 1.98 2 3 C3.32 3 4.64 3 6 3 C6 3.99 6 4.98 6 6 C3.625 5.75 3.625 5.75 1 5 C-0.3125 2.9375 -0.3125 2.9375 -1 1 C-0.67 0.67 -0.34 0.34 0 0 Z " fill="#EBD229" transform="translate(298,244)"/>
<path d="M0 0 C1.875 0.25 1.875 0.25 4 1 C5.3125 2.875 5.3125 2.875 6 5 C5.67 5.99 5.34 6.98 5 8 C4.16382818 6.8562364 3.33113541 5.70992861 2.5 4.5625 C2.0359375 3.92441406 1.571875 3.28632813 1.09375 2.62890625 C0 1 0 1 0 0 Z " fill="#DDCD36" transform="translate(259,193)"/>
<path d="M0 0 C2.475 0.495 2.475 0.495 5 1 C5 2.32 5 3.64 5 5 C5.66 5.33 6.32 5.66 7 6 C6.01 6 5.02 6 4 6 C1.8125 3 1.8125 3 0 0 Z " fill="#1E3323" transform="translate(297,149)"/>
<path d="M0 0 C3.08089673 2.77280706 4.68775452 5.06326356 6 9 C3.5625 7.875 3.5625 7.875 1 6 C0.1875 2.8125 0.1875 2.8125 0 0 Z " fill="#D1C537" transform="translate(251,86)"/>
<path d="M0 0 C1.32 0 2.64 0 4 0 C4 1.65 4 3.3 4 5 C2.68 4.67 1.36 4.34 0 4 C0 2.68 0 1.36 0 0 Z " fill="#02225F" transform="translate(260,82)"/>
</svg>
