<svg id="Layer_1" data-name="Layer 1" xmlns="http://www.w3.org/2000/svg" viewBox="0 0 369.43 38.34"><defs><style>.cls-1{fill:#00274c;}.cls-2{fill:#ffcb05;}</style></defs><path class="cls-1" d="M556,313.93V313c1.12-.07,2-.16,2-1.08a3.34,3.34,0,0,0-.19-1l-.49-1.69h-5.85l-.51,1.43a3.21,3.21,0,0,0-.21,1c0,1.17,1.24,1.24,2.25,1.29v.89h-6.83V313c1.73-.07,2.3-.42,2.93-2.16l4.49-12.31-.26-.4a9.64,9.64,0,0,0,3.29-1.52c.33,1.12.37,1.26.75,2.44L561,310.36c.66,2,1,2.49,2.73,2.68v.89Zm-1.49-13.31-2.44,6.87h4.77Z" transform="translate(-211.39 -286.56)"/><path class="cls-1" d="M503.07,310.24a7.7,7.7,0,0,1-7.08,4.14c-5,0-8.23-3.69-8.23-8.53,0-4.48,2.75-8.9,8.35-8.9a8.07,8.07,0,0,1,5.46,2l1.14-1,.09,5-.74.14a7,7,0,0,0-1.78-2.91,5,5,0,0,0-3.48-1.62c-3,0-5.36,2.44-5.36,6.74,0,3.64,1.94,7.07,5.78,7.07,2.9,0,4-1.62,4.86-2.86Z" transform="translate(-211.39 -286.56)"/><path class="cls-1" d="M504.29,313.93V313c1.88-.16,1.9-.57,1.9-2.16,0-.59,0-1.18,0-1.76v-6.95c0-1.09,0-2.17-.07-2.68-.1-1-.57-1.13-1.86-1.25v-.89h7.1v.89c-1.39.14-1.9.19-2.07,1.11a18.72,18.72,0,0,0-.14,2.74v2.29c1.43.07,2.43.12,3.82.12s2.52-.05,3.93-.12V301.6c0-3,0-3.15-2.3-3.36v-.89h7.19v.89c-1.93.24-1.93.26-1.93,3.41v7c0,.65,0,2.74.1,3.24.12.87.61,1,1.83,1.15v.89h-7.19V313c1.67-.19,2.12-.24,2.26-1.39,0-.47,0-1.1,0-2.3v-3c-1.31-.05-2.4-.12-3.77-.12s-2.55.05-4,.12v3c0,3.45.07,3.45,2.21,3.69v.89Z" transform="translate(-211.39 -286.56)"/><path class="cls-1" d="M523.19,313.93V313c1.62-.21,1.95-.4,2-2.14v-8.83c0-3.45,0-3.55-2-3.83v-.89h6.89v.89c-2,.19-2,.28-2,3.83v6.69c0,.59,0,2.45.07,2.94.12,1,.59,1.25,1.88,1.34v.89Z" transform="translate(-211.39 -286.56)"/><path class="cls-1" d="M480.65,313.93V313c1.62-.21,2-.4,2-2.14v-8.83c0-3.45,0-3.55-2-3.83v-.89h6.88v.89c-1.95.19-1.95.28-1.95,3.83v6.69c0,.59,0,2.45.08,2.94.11,1,.58,1.25,1.87,1.34v.89Z" transform="translate(-211.39 -286.56)"/><path class="cls-1" d="M471.77,313.93V313c2.09-.14,2.09-.24,2.11-3.31v-8.34l-5.8,12.75h-1.46l-5.32-12.92-.13,9.75c0,1.62.19,1.93,2,2.07v.89h-5.76V313c1.34-.07,1.86-.26,1.95-1.39.05-.44.12-1.83.14-2.75l.24-6.95c0-.54,0-1.33,0-1.92,0-1.65-.33-1.76-1.81-1.79v-.89h5.22l5.16,12.59L474,297.35h5v1c-2,.11-2,.33-2,2.91v6.83c0,1.13,0,2.54.1,3.38.09,1.23.56,1.46,1.87,1.58v.89Z" transform="translate(-211.39 -286.56)"/><path class="cls-1" d="M563.28,313.93V313c1.36-.07,1.88-.09,2.07-1,.23-1.1.3-10.94.33-12.65a3.22,3.22,0,0,0-2.4-1.11v-.89h5c1.39,2,1.69,2.42,4.13,5.45l4.63,5.73v-7.42c0-2.63-.09-2.77-2.73-2.87v-.89h6.53v.89c-1.8,0-2,.4-2,3.1l-.24,12.8h-1l-1.48-1.85c-.75-.94-1.51-1.88-2.26-2.8l-6.55-8.08V310c0,2.68.19,2.77,2.72,3v.89Z" transform="translate(-211.39 -286.56)"/><path class="cls-1" d="M437.46,305.62c0,5.73-3.9,8.73-8.3,8.73a8.35,8.35,0,0,1-8.58-8.76c0-4.53,3-8.61,8.36-8.59A8.23,8.23,0,0,1,437.46,305.62Zm-8.28,7.21a4.11,4.11,0,0,0,3.28-2.05,8.78,8.78,0,0,0,1.35-5.61,7.85,7.85,0,0,0-1.88-5.28A3.77,3.77,0,0,0,426,300a7.88,7.88,0,0,0-1.72,5.33,8.84,8.84,0,0,0,1.52,5.57A4.14,4.14,0,0,0,429.18,312.83Z" transform="translate(-211.39 -286.56)"/><path class="cls-1" d="M439.54,310.88c0-.4,0-2.4,0-2.84v-5.83a23.61,23.61,0,0,0-.15-3c-.16-.78-.68-.85-1.87-1v-.89h12.16l.26,4.06h-.82c-.44-2.59-1.48-2.58-4.72-2.58a13.92,13.92,0,0,0-2,.09v5.75h2.18c2,0,2.52-.18,2.61-2h.8v5.47h-.8c-.12-1.86-1.1-2-3-2h-1.83v4.73c0,1.81.26,2,2,2.13v.92h-6.87V313C439.28,312.85,439.49,312.69,439.54,310.88Z" transform="translate(-211.39 -286.56)"/><path class="cls-1" d="M307.49,313.81v-.89c1.62-.21,1.95-.4,2-2.13V302c0-3.45,0-3.54-2-3.82v-.9h6.89v.9c-1.95.18-1.95.28-1.95,3.82v6.7c0,.58,0,2.44.07,2.93.11,1,.58,1.25,1.88,1.34v.89Z" transform="translate(-211.39 -286.56)"/><path class="cls-1" d="M372.72,313.81v-.89c1.62-.21,1.95-.4,2-2.13V302c0-3.45,0-3.54-2-3.82v-.9h6.88v.9c-1.94.18-1.94.28-1.94,3.82v6.7c0,.58,0,2.44.07,2.93.11,1,.58,1.25,1.87,1.34v.89Z" transform="translate(-211.39 -286.56)"/><path class="cls-1" d="M288.86,313.81v-.89c1.37-.07,1.88-.09,2.07-1,.23-1.1.31-10.95.33-12.66a3.16,3.16,0,0,0-2.4-1.1v-.9h5c1.39,2,1.69,2.42,4.14,5.45l4.62,5.73V301c0-2.63-.09-2.77-2.72-2.86v-.9h6.53v.9c-1.81,0-2,.39-2,3.1l-.23,12.8h-1l-1.48-1.86c-.75-.94-1.5-1.88-2.25-2.79l-6.56-8.09v8.6c0,2.68.19,2.77,2.73,3v.89Z" transform="translate(-211.39 -286.56)"/><path class="cls-1" d="M360.57,308.65l.85-.1c.91,2.7,2.44,4.16,4.93,4.16,1.76,0,3.31-.75,3.31-2.54s-1.81-2.63-2.61-3-1.36-.47-2-.72c-1.36-.5-3.92-1.55-3.92-4.77s2.45-4.84,5.29-4.84a6.92,6.92,0,0,1,3.8,1.13l1-.73.54,4.93-.82.17a5.76,5.76,0,0,0-1.15-2.46,3.92,3.92,0,0,0-3.24-1.51c-1.76,0-2.8.84-2.8,2.16,0,2,1.95,2.63,3.81,3.24a11.65,11.65,0,0,1,2.39,1,4.82,4.82,0,0,1,2.4,4.23c0,2.86-2.35,5.24-5.85,5.24a7.53,7.53,0,0,1-4.3-1.32l-1.38-1Z" transform="translate(-211.39 -286.56)"/><path class="cls-1" d="M384.73,313.81v-.7c1.53,0,1.95-.59,1.95-1.9V299h-2.07c-1.88,0-3.12-.07-3.26,2.89h-.87l.14-4.65H395.7l.14,4.65H395c-.14-3-1.38-2.89-3.26-2.89h-2.07v12.22c0,1.31.42,1.88,1.95,1.9v.7Z" transform="translate(-211.39 -286.56)"/><path class="cls-1" d="M277.75,297.23v.9c-2.21.16-2.21.23-2.24,3.75v3.9c0,2,0,3.76,1.11,5.31a3.58,3.58,0,0,0,3,1.4,4,4,0,0,0,4.24-3.19,28.07,28.07,0,0,0,.49-6.38c0-.61,0-2.59,0-3.13-.09-1.5-.86-1.55-2.34-1.66v-.9h6.31v.9c-1.55,0-1.87.32-2,2,0,.4-.21,5-.23,5.71a19.78,19.78,0,0,1-.4,3.71c-1.13,4.46-5.47,4.69-6.63,4.69a8.12,8.12,0,0,1-4.34-1.17c-2.47-1.67-2.49-4.16-2.49-6.84v-3.75c0-1.79,0-2.59-.07-3-.14-1-.66-1.24-1.9-1.31v-.9Z" transform="translate(-211.39 -286.56)"/><path class="cls-1" d="M331.83,297.23v.9c-1.6.23-1.81.68-3.17,4l-5.05,12.05h-.9l-4.53-12.23c-1.13-3.15-1.27-3.53-2.93-3.78v-.9h7.86v.9c-1.33,0-2.2.09-2.2,1.05a7.56,7.56,0,0,0,.56,2.26l2.89,8.43,3.38-8.71a7,7,0,0,0,.49-1.77c0-1.19-1.17-1.24-2.2-1.26v-.9Z" transform="translate(-211.39 -286.56)"/><path class="cls-1" d="M401.11,313.81v-.89c1.29-.14,1.78-.19,2.11-.52s.38-.79.4-2.6v-2.91l-4.42-6.84c-1.19-1.78-1.22-1.83-2.82-1.92v-.92H405v.92c-1.74,0-2.52.09-2.52.89a3.94,3.94,0,0,0,.73,1.67l2.54,4.15,2.35-4.13a4.6,4.6,0,0,0,.66-1.69c0-.8-.69-.82-1.84-.89v-.92h6.49v.92c-1.67,0-2.17.54-4.07,3.64l-2.58,4.32v3.45c0,3,0,3.24,2.49,3.38v.89Z" transform="translate(-211.39 -286.56)"/><path class="cls-1" d="M331.83,313.81v-.91c1.72-.17,1.93-.33,2-2.14,0-.4.05-2.39.05-2.84v-5.83a23.69,23.69,0,0,0-.14-3c-.16-.78-.68-.85-1.88-1v-.89h11.81l.1,3.95H343c-.38-2.26-1.39-2.47-4.21-2.47h-2v5.84h1.81c2.14,0,2.44-.48,2.61-2H342v5.47h-.79c0-1.86-.59-2-2.63-2h-1.79v4.64c0,1.08.45,1.66,2.65,1.66,2.4,0,4.07.14,4.63-2.81h.8a42.55,42.55,0,0,0-.35,4.29Z" transform="translate(-211.39 -286.56)"/><path class="cls-1" d="M546.91,306.6v.89c-1.5.1-1.5.52-1.54,3.67v1.24a11,11,0,0,1-6.38,2c-5.71,0-8.44-4.32-8.44-8.66,0-5.31,3.6-8.76,8.1-8.76a10,10,0,0,1,5.81,1.88l.87-1,.13,5.19-.68.12a8.26,8.26,0,0,0-2.09-3.37,4.58,4.58,0,0,0-3.28-1.24c-2.9,0-5.31,2.45-5.31,7.21,0,3.81,1.88,7.07,5.12,7.07a3.68,3.68,0,0,0,2.87-1.38,2.33,2.33,0,0,0,.34-1.58c-.07-2.11-.36-2.16-2.2-2.35v-.89Z" transform="translate(-211.39 -286.56)"/><path class="cls-1" d="M350.6,304.92a8.1,8.1,0,0,0,1.56.17,3.34,3.34,0,0,0,3.38-2.8c.1-1.93-.87-3.59-3.92-3.59a4.45,4.45,0,0,0-1,.09Zm0,3.61c0,3.81,0,4.32,2,4.37v.91H345.7v-.91c1.78-.14,2-.43,2-2.21,0-.68,0-1.45,0-2.13v-6a24.87,24.87,0,0,0-.1-3.24c-.11-.92-.56-1.08-1.92-1.2v-.89l7.51,0c4.09,0,5.38,1.94,5.38,4.25a4.65,4.65,0,0,1-3.26,4.38l2.93,5.1c1.06,1.95,1.62,2.4,3,2.59v.56c-.35,0-.7.05-1.08.05-3.12,0-4.42-1.08-5.73-3.88l-.92-1.95c-1-2.09-1.31-2-2.89-2Z" transform="translate(-211.39 -286.56)"/><path class="cls-2" d="M238.14,318.21l-10.92-15v10.92h4.37V324.9h-20.2V314.12h4.09V297.34h-4.09V286.56h15.86l10.94,15.14,11-15.14H265v10.78h-4.1v16.78H265V324.9h-20.2V314.12h4.37V303.2Z" transform="translate(-211.39 -286.56)"/></svg>