<svg xmlns="http://www.w3.org/2000/svg" viewBox="0 0 369.43 38.34"><defs><style>.cls-1{fill:#fff;}.cls-2{fill:#ffcb05;}</style></defs><g id="Layer_1" data-name="Layer 1"><path class="cls-1" d="M556,313.91V313c1.13-.07,2-.16,2-1.08a3.55,3.55,0,0,0-.19-1l-.5-1.7h-5.84L551,310.7a3.15,3.15,0,0,0-.21,1c0,1.17,1.25,1.24,2.26,1.29v.89h-6.84V313c1.74-.07,2.3-.42,2.94-2.16l4.48-12.31-.26-.39a9.6,9.6,0,0,0,3.29-1.53c.33,1.13.38,1.27.75,2.44l3.67,11.27c.65,2,1,2.49,2.72,2.68v.89Zm-1.48-13.31-2.44,6.88h4.76Z" transform="translate(-211.4 -286.54)"/><path class="cls-1" d="M503.07,310.23a7.7,7.7,0,0,1-7.07,4.13c-5,0-8.23-3.69-8.23-8.53,0-4.48,2.74-8.9,8.34-8.9a8.08,8.08,0,0,1,5.47,2l1.14-1,.08,5-.73.14a7.07,7.07,0,0,0-1.79-2.91,4.92,4.92,0,0,0-3.48-1.62c-3,0-5.35,2.44-5.35,6.74,0,3.64,1.94,7.07,5.78,7.07,2.9,0,4-1.62,4.86-2.86Z" transform="translate(-211.4 -286.54)"/><path class="cls-1" d="M504.3,313.91V313c1.88-.16,1.9-.56,1.9-2.16,0-.59,0-1.17,0-1.76v-7c0-1.08,0-2.16-.07-2.68-.09-1-.56-1.13-1.85-1.24v-.9h7.1v.9c-1.39.14-1.91.18-2.07,1.1a17.48,17.48,0,0,0-.14,2.75v2.29c1.43.07,2.43.11,3.81.11s2.53,0,3.94-.11v-2.79c0-3-.05-3.14-2.3-3.35v-.9h7.19v.9c-1.93.23-1.93.25-1.93,3.4v7c0,.66,0,2.75.09,3.24.12.87.61,1,1.84,1.15v.89h-7.19V313c1.66-.19,2.11-.23,2.25-1.39.05-.46.05-1.1.05-2.3v-3c-1.32,0-2.41-.11-3.77-.11s-2.55,0-4,.11v3c0,3.46.07,3.46,2.21,3.69v.89Z" transform="translate(-211.4 -286.54)"/><path class="cls-1" d="M523.19,313.91V313c1.63-.21,1.95-.4,2-2.14v-8.83c0-3.45,0-3.54-2-3.82v-.9h6.9v.9c-2,.18-2,.28-2,3.82v6.7c0,.58,0,2.44.07,2.93.11,1,.58,1.25,1.88,1.34v.89Z" transform="translate(-211.4 -286.54)"/><path class="cls-1" d="M480.65,313.91V313c1.62-.21,2-.4,2-2.14v-8.83c0-3.45,0-3.54-2-3.82v-.9h6.89v.9c-2,.18-2,.28-2,3.82v6.7c0,.58,0,2.44.07,2.93.12,1,.59,1.25,1.88,1.34v.89Z" transform="translate(-211.4 -286.54)"/><path class="cls-1" d="M471.77,313.91V313c2.09-.14,2.09-.23,2.12-3.31v-8.34l-5.8,12.76h-1.46L461.3,301.2l-.12,9.76c0,1.61.19,1.92,1.95,2.06v.89h-5.75V313c1.34-.07,1.85-.26,1.95-1.39,0-.44.11-1.83.14-2.74l.23-6.95c0-.54,0-1.34,0-1.93,0-1.64-.32-1.76-1.8-1.78v-.9h5.21l5.17,12.59L474,297.33h5v1c-2,.12-2,.33-2,2.91v6.83c0,1.13,0,2.54.09,3.39.09,1.22.56,1.45,1.88,1.57v.89Z" transform="translate(-211.4 -286.54)"/><path class="cls-1" d="M563.29,313.91V313c1.36-.07,1.88-.09,2.06-1,.24-1.11.31-10.95.33-12.66a3.14,3.14,0,0,0-2.39-1.1v-.9h5c1.39,2,1.7,2.42,4.14,5.45l4.62,5.73v-7.42c0-2.63-.09-2.77-2.72-2.86v-.9h6.53v.9c-1.81,0-2,.39-2,3.1l-.23,12.8h-1l-1.48-1.86c-.75-.94-1.5-1.88-2.25-2.8l-6.55-8.08V310c0,2.68.18,2.77,2.72,3v.89Z" transform="translate(-211.4 -286.54)"/><path class="cls-1" d="M437.47,305.6c0,5.73-3.91,8.74-8.3,8.74a8.36,8.36,0,0,1-8.59-8.76c0-4.54,3-8.62,8.37-8.6A8.23,8.23,0,0,1,437.47,305.6Zm-8.28,7.21a4.12,4.12,0,0,0,3.28-2.05,8.91,8.91,0,0,0,1.35-5.61,7.86,7.86,0,0,0-1.89-5.28,3.78,3.78,0,0,0-5.88.09,7.89,7.89,0,0,0-1.72,5.33,8.83,8.83,0,0,0,1.52,5.57A4.1,4.1,0,0,0,429.19,312.81Z" transform="translate(-211.4 -286.54)"/><path class="cls-1" d="M439.54,310.86c0-.4,0-2.39,0-2.84V302.2a24,24,0,0,0-.14-3c-.17-.78-.68-.85-1.88-1v-.9h12.16l.26,4.07h-.82c-.43-2.6-1.48-2.59-4.72-2.59a13.33,13.33,0,0,0-2,.1v5.74h2.19c2,0,2.51-.18,2.61-2h.79v5.47h-.79c-.12-1.86-1.11-2-3-2h-1.84v4.73c.05,1.81.26,2,2,2.14v.91h-6.87V313C439.28,312.83,439.49,312.67,439.54,310.86Z" transform="translate(-211.4 -286.54)"/><path class="cls-1" d="M307.49,313.8v-.9c1.62-.21,1.95-.39,2-2.13v-8.83c0-3.46,0-3.55-2-3.83v-.89h6.89v.89c-1.95.19-1.95.28-1.95,3.83v6.69c0,.59,0,2.44.07,2.93.12,1,.59,1.25,1.88,1.34v.9Z" transform="translate(-211.4 -286.54)"/><path class="cls-1" d="M372.73,313.8v-.9c1.62-.21,1.95-.39,2-2.13v-8.83c0-3.46,0-3.55-2-3.83v-.89h6.88v.89c-1.95.19-1.95.28-1.95,3.83v6.69c0,.59,0,2.44.07,2.93.12,1,.59,1.25,1.88,1.34v.9Z" transform="translate(-211.4 -286.54)"/><path class="cls-1" d="M288.87,313.8v-.9c1.36-.07,1.88-.09,2.07-1,.23-1.1.3-10.94.32-12.66a3.17,3.17,0,0,0-2.39-1.1v-.89h5c1.38,2,1.69,2.41,4.13,5.44l4.63,5.74V301c0-2.63-.1-2.77-2.73-2.86v-.89h6.53v.89c-1.81,0-2,.4-2,3.1l-.24,12.8h-1l-1.47-1.86c-.76-.94-1.51-1.88-2.26-2.79l-6.55-8.08v8.59c0,2.68.19,2.78,2.72,3v.9Z" transform="translate(-211.4 -286.54)"/><path class="cls-1" d="M360.58,308.63l.84-.09c.92,2.7,2.45,4.15,4.94,4.15,1.76,0,3.31-.75,3.31-2.53s-1.81-2.63-2.61-3-1.36-.47-2-.73c-1.36-.49-3.92-1.55-3.92-4.77s2.44-4.84,5.28-4.84a6.93,6.93,0,0,1,3.81,1.13l1-.73.54,4.94-.83.16a5.66,5.66,0,0,0-1.15-2.45,3.88,3.88,0,0,0-3.24-1.52c-1.76,0-2.79.85-2.79,2.16,0,2,1.95,2.63,3.8,3.24a13,13,0,0,1,2.4,1,4.83,4.83,0,0,1,2.39,4.23c0,2.87-2.35,5.24-5.84,5.24a7.42,7.42,0,0,1-4.3-1.32l-1.38-1Z" transform="translate(-211.4 -286.54)"/><path class="cls-1" d="M384.74,313.8v-.71c1.52,0,1.94-.58,1.94-1.9V299h-2.06c-1.88,0-3.12-.07-3.27,2.89h-.87l.15-4.65H395.7l.14,4.65H395c-.15-3-1.39-2.89-3.27-2.89h-2.07v12.22c0,1.32.43,1.88,1.95,1.9v.71Z" transform="translate(-211.4 -286.54)"/><path class="cls-1" d="M277.75,297.22v.89c-2.21.16-2.21.23-2.23,3.76v3.89c0,2,0,3.76,1.1,5.31a3.58,3.58,0,0,0,3,1.4,4,4,0,0,0,4.24-3.18,27.6,27.6,0,0,0,.49-6.39c0-.61,0-2.58,0-3.12-.09-1.51-.87-1.55-2.35-1.67v-.89h6.32v.89c-1.55,0-1.88.33-2,2,0,.4-.21,5-.24,5.71a19.78,19.78,0,0,1-.4,3.71c-1.13,4.46-5.47,4.7-6.62,4.7a8.12,8.12,0,0,1-4.34-1.18c-2.47-1.67-2.49-4.16-2.49-6.83v-3.76c0-1.78,0-2.58-.08-3-.14-1-.65-1.24-1.9-1.31v-.89Z" transform="translate(-211.4 -286.54)"/><path class="cls-1" d="M331.83,297.22v.89c-1.59.23-1.81.68-3.17,4l-5.05,12.05h-.89l-4.53-12.24c-1.13-3.15-1.27-3.52-2.94-3.78v-.89h7.87v.89c-1.34.05-2.21.09-2.21,1.06a8,8,0,0,0,.56,2.25l2.89,8.43,3.39-8.71a7.07,7.07,0,0,0,.49-1.76c0-1.2-1.18-1.25-2.21-1.27v-.89Z" transform="translate(-211.4 -286.54)"/><path class="cls-1" d="M401.11,313.8v-.9c1.29-.14,1.79-.18,2.11-.51s.38-.8.4-2.61v-2.91L399.21,300c-1.2-1.78-1.22-1.83-2.82-1.92v-.92H405v.92c-1.74.05-2.51.09-2.51.89a3.89,3.89,0,0,0,.73,1.67l2.54,4.15,2.34-4.13a4.36,4.36,0,0,0,.66-1.69c0-.8-.68-.82-1.83-.89v-.92h6.48v.92c-1.67.05-2.16.54-4.06,3.64l-2.59,4.32v3.45c0,3,0,3.24,2.49,3.38v.9Z" transform="translate(-211.4 -286.54)"/><path class="cls-1" d="M331.84,313.8v-.92c1.71-.16,1.92-.33,2-2.14,0-.4.05-2.39.05-2.84v-5.83a25.82,25.82,0,0,0-.14-3c-.17-.78-.69-.85-1.88-1v-.89h11.81l.09,4H343c-.37-2.26-1.38-2.47-4.2-2.47h-2.05v5.84h1.81c2.14,0,2.45-.48,2.61-2h.8V308h-.8c0-1.85-.59-2-2.63-2h-1.79v4.64c0,1.08.45,1.67,2.66,1.67,2.39,0,4.06.14,4.63-2.82h.79a42.75,42.75,0,0,0-.35,4.3Z" transform="translate(-211.4 -286.54)"/><path class="cls-1" d="M546.92,306.58v.9c-1.5.09-1.5.51-1.55,3.66v1.24a10.93,10.93,0,0,1-6.38,1.95c-5.71,0-8.43-4.32-8.43-8.66,0-5.31,3.59-8.76,8.09-8.76a10,10,0,0,1,5.82,1.88l.86-1,.13,5.19-.67.12a8.19,8.19,0,0,0-2.1-3.37,4.55,4.55,0,0,0-3.27-1.23c-2.9,0-5.31,2.44-5.31,7.21,0,3.8,1.88,7.06,5.11,7.06a3.73,3.73,0,0,0,2.88-1.38,2.45,2.45,0,0,0,.34-1.58c-.08-2.11-.36-2.16-2.2-2.34v-.9Z" transform="translate(-211.4 -286.54)"/><path class="cls-1" d="M350.61,304.91a8.85,8.85,0,0,0,1.55.16,3.33,3.33,0,0,0,3.38-2.8c.1-1.93-.87-3.59-3.92-3.59a4.41,4.41,0,0,0-1,.09Zm0,3.61c0,3.8,0,4.31,2,4.36v.92H345.7v-.92c1.79-.14,2-.42,2-2.21,0-.68,0-1.45,0-2.13v-6a28.11,28.11,0,0,0-.09-3.24c-.12-.92-.56-1.08-1.93-1.2v-.89l7.52,0c4.08,0,5.37,1.95,5.37,4.25a4.63,4.63,0,0,1-3.26,4.38l2.94,5.1c1.05,2,1.62,2.4,3,2.59v.56c-.35,0-.7.05-1.08.05-3.12,0-4.41-1.08-5.73-3.87l-.91-1.95c-1-2.09-1.32-2-2.89-2Z" transform="translate(-211.4 -286.54)"/><path class="cls-2" d="M238.14,318.2l-10.92-15V314.1h4.37v10.78H211.4V314.1h4.09V297.32H211.4V286.54h15.86l10.93,15.15,11-15.15H265v10.78h-4.09V314.1H265v10.78H244.82V314.1h4.36V303.19Z" transform="translate(-211.4 -286.54)"/></g></svg>